<svg width="34" height="34" viewBox="0 0 34 34" fill="none" xmlns="http://www.w3.org/2000/svg">
<path d="M0 5.695C0 2.54974 2.54974 0 5.695 0H28.305C31.4503 0 34 2.54974 34 5.695V28.305C34 31.4503 31.4503 34 28.305 34H5.695C2.54974 34 0 31.4503 0 28.305V5.695Z" fill="white"/>
<path fill-rule="evenodd" clip-rule="evenodd" d="M20.0774 23.9582C21.1396 25.0204 22.8618 25.0204 23.924 23.9582C24.9863 22.896 24.9863 21.1738 23.924 20.1116C22.8618 19.0493 21.1396 19.0493 20.0774 20.1116C19.0151 21.1738 19.0151 22.896 20.0774 23.9582ZM23.9244 10.0743C22.8622 9.01205 21.0832 9.0688 20.0777 10.0743C19.6061 10.5459 18.9987 11.4993 18.4385 12.3787C17.8043 13.374 17.2306 14.2746 16.9824 14.2746C16.7399 14.2746 16.2118 13.4403 15.6063 12.4838C15.0442 11.5959 14.4155 10.6028 13.887 10.0743C12.7891 8.97641 11.1026 9.01205 10.0404 10.0743C8.97813 11.1365 9.03488 12.9155 10.0404 13.9209C10.5033 14.3839 11.4303 14.9686 12.296 15.5145C13.3105 16.1544 14.2407 16.7411 14.2407 17.0163C14.2407 17.294 13.2832 17.8992 12.2542 18.5496C11.3933 19.0938 10.4824 19.6696 10.0404 20.1117C9.06999 21.082 8.97813 22.8961 10.0404 23.9583C11.1026 25.0205 12.9591 24.8862 13.887 23.9583C14.2432 23.6022 14.5503 22.9694 14.9287 22.1897C15.5363 20.9381 16.3276 19.3077 17.8007 17.8346C19.2549 16.3805 20.8385 15.6144 22.0794 15.0141C22.8787 14.6275 23.5357 14.3096 23.9244 13.9209C24.9164 12.9289 24.9866 11.1365 23.9244 10.0743Z" fill="url(#paint0_linear_327_1107)"/>
<defs>
<linearGradient id="paint0_linear_327_1107" x1="22.1705" y1="23.961" x2="10.5854" y2="9.48324" gradientUnits="userSpaceOnUse">
<stop stop-color="#585BD5"/>
<stop offset="1" stop-color="#00CFF4"/>
</linearGradient>
</defs>
</svg>
